<svg xmlns="http://www.w3.org/2000/svg"><symbol viewBox="0 0 27 17" id="icon-Icon-Behance"><title>Icon-Behance</title><desc>Created with Sketch.</desc> <!-- Generator: Sketch 3.1.1 (8761) - http://www.bohemiancoding.com/sketch -->    <g id="Icon-Behance-Welcome" stroke="none" stroke-width="1" fill="none" fill-rule="evenodd" sketch:type="MSPage"> <g id="Icon-Behance-Icon-Behance" sketch:type="MSArtboardGroup" transform="translate(-11.000000, -16.000000)" fill="#FFFFFF"> <g id="Icon-Behance-Behance-2" sketch:type="MSLayerGroup" transform="translate(11.000000, 16.000000)"> <path d="M0,0 L0,16.9306931 L7.55663357,16.9306931 C10.7917419,16.9306931 13.375,15.3893835 13.375,12.2119145 C13.375,9.81695649 11.7091606,8.25193444 9.51218412,7.99109743 C11.3953069,7.68283551 12.7472924,6.14152592 12.7472924,4.22081704 C12.7472924,1.28047259 10.5744585,0 7.65320397,0 L0,0 Z M1.78333333,7.12871287 L1.78333333,1.78217822 L7.5606948,1.78217822 C9.63957801,1.78217822 11.235,2.61884967 11.235,4.49625879 C11.235,6.25122818 9.54288576,7.12871287 7.5606948,7.12871287 L1.78333333,7.12871287 Z M1.78333333,15.1485149 L1.78333333,8.91089109 L7.5598758,8.91089109 C9.61113782,8.91089109 11.5916667,9.77423002 11.5916667,11.9973278 C11.5916667,14.1772586 9.75260417,15.1485149 7.48914263,15.1485149 L1.78333333,15.1485149 Z" id="Icon-Behance-Path" sketch:type="MSShapeGroup"/> <path d="M26.803008,11.5585962 C26.9252219,8.00084039 25.0576579,4.45544554 20.9757142,4.45544554 C17.822596,4.45544554 15.1583333,6.90429043 15.1583333,10.7161716 C15.1583333,14.320132 17.0893127,16.9306931 21.000157,16.9306931 C24.0066185,16.9306931 25.5781637,15.7070772 26.803008,13.3407744 L25.0196747,13.3407744 C23.6276428,15.2064922 23.1818095,15.2064922 21.0001571,15.2064922 C18.778008,15.2064926 17.0401384,14.3539757 16.9668101,11.5585962 L26.803008,11.5585962 Z M16.9416667,9.8019802 C17.0808285,7.72583444 18.6811898,6.23762376 21.0005539,6.23762376 C23.6214355,6.23762376 24.943473,7.89119118 24.9666667,9.8019802 L16.9416667,9.8019802 Z" id="Icon-Behance-Path" sketch:type="MSShapeGroup"/> <rect id="Icon-Behance-Rectangle-6" sketch:type="MSShapeGroup" x="15.1583333" y="0.891089109" width="10.7" height="1.78217822" rx="1"/> </g> </g> </g> </symbol><symbol viewBox="0 0 30 24" id="icon-Icon-Contact"><title>Icon-Contact</title><desc>Created with Sketch.</desc> <!-- Generator: Sketch 3.1.1 (8761) - http://www.bohemiancoding.com/sketch -->    <g id="Icon-Contact-Welcome" stroke="none" stroke-width="1" fill="none" fill-rule="evenodd" sketch:type="MSPage"> <g id="Icon-Contact-Icon-Contact" sketch:type="MSArtboardGroup" transform="translate(-9.000000, -12.000000)" fill="#FFFFFF"> <g id="Icon-Contact-Contact-2" sketch:type="MSLayerGroup" transform="translate(9.000000, 13.000000)"> <path d="M1.21959826,11.954068 C1.99880168,13.0958708 3.07872684,14.0628147 4.45937372,14.8248865 C4.33908503,15.0884798 4.24953678,15.32206 4.12924809,15.5569452 C4.0089594,15.7618172 3.8592668,15.9666893 3.7095742,16.1715613 C3.52914117,16.3764333 3.40885247,16.5225841 3.31930422,16.6400267 C3.22975597,16.7574692 3.07872684,16.9336331 2.89963034,17.1385052 C2.6897934,17.3433772 2.5695047,17.4608198 2.50936036,17.5482492 C2.47995646,17.5482492 2.47995646,17.5782623 2.41981211,17.6069705 C2.38907167,17.6356787 2.38907167,17.6656918 2.35966776,17.6944 C2.32892732,17.6944 2.32892732,17.7244131 2.29952342,17.7831344 C2.26878297,17.8118426 2.23937907,17.8418557 2.23937907,17.8705639 C2.20997517,17.8705639 2.20997517,17.899272 2.17923472,17.9579933 C2.17923472,17.9880064 2.14983082,18.0167146 2.14983082,18.0467277 L2.14983082,18.1341572 C2.14983082,18.1928785 2.14983082,18.2215867 2.17923472,18.2515998 C2.17923472,18.3977505 2.23937907,18.5151931 2.35966776,18.6026226 C2.47995646,18.691357 2.5695047,18.7200651 2.6897934,18.7200651 L2.74993774,18.7200651 C3.31930422,18.6613439 3.79912245,18.5739144 4.18939244,18.4564718 C5.89882841,18.0467277 7.4585718,17.3433772 8.83921868,16.3764333 C9.85899949,16.5525972 10.8493764,16.6400267 11.8090129,16.6400267 C13.9087188,16.6400267 15.8894726,16.2589908 17.7191973,15.5269321 C19.5195181,14.7661652 20.9589728,13.7705131 22.009494,12.4812547 C23.0586787,11.1919962 23.5692374,9.78660007 23.5692374,8.26376137 C23.5692374,6.76963086 23.0586787,5.36423473 22.009494,4.07497626 C20.9589728,2.78571779 19.5195181,1.79006576 17.7191973,1.02929887 C15.8894726,0.297240161 13.9394593,-0.0837957434 11.8090129,-0.0837957434 C9.64916255,-0.0837957434 7.69914918,0.297240161 5.86942451,1.02929887 C4.06910374,1.79006576 2.62964905,2.78571779 1.5791278,4.07497626 C0.52994309,5.36423473 0.0193844159,6.76963086 0.0193844159,8.26376137 C0.0193844159,9.58172803 0.409654397,10.7822521 1.21959826,11.954068 L1.21959826,11.954068 Z M3.46899682,5.15936269 C4.33908503,4.19241884 5.50989497,3.40163884 7.00949401,2.84443908 C8.47968915,2.28854423 10.0995769,1.9949378 11.8090129,1.9949378 C13.4890449,1.9949378 15.1089327,2.28854423 16.5791278,2.84443908 C18.0787268,3.40163884 19.2495368,4.19241884 20.119625,5.15936269 C20.9883767,6.12500162 21.438791,7.17937495 21.438791,8.26376137 C21.438791,9.37685598 20.9883767,10.4312293 20.119625,11.3968682 C19.2495368,12.3638121 18.0787268,13.1545921 16.5791278,13.7117919 C15.1089327,14.2676867 13.4890449,14.5612931 11.8090129,14.5612931 C10.9696651,14.5612931 10.0995769,14.4725587 9.22948867,14.326408 L8.35940045,14.1802572 L7.60960094,14.6774308 C7.3088792,14.8836077 6.94934967,15.0884798 6.55907968,15.32206 L7.15918661,13.9453721 L5.53929888,13.0084413 C4.45937372,12.4225334 3.61868941,11.6904747 3.04932293,10.8696816 C2.44921601,10.0214852 2.14983082,9.17198394 2.14983082,8.26376137 C2.14983082,7.17937495 2.59890861,6.12500162 3.46899682,5.15936269 L3.46899682,5.15936269 Z M18.2284194,20.8288118 C19.1893924,20.8288118 20.1784328,20.7413823 21.1688097,20.5652185 C22.5494566,21.5321623 24.1092,22.2054997 25.818636,22.6452569 C26.2383098,22.7613946 26.7194646,22.850129 27.2594272,22.9088502 C27.4091198,22.9375584 27.5294085,22.8788371 27.6496972,22.7914077 C27.7392454,22.7026733 27.8287937,22.5865356 27.8595341,22.43908 C27.8595341,22.4103718 27.888938,22.3816636 27.888938,22.3229423 C27.888938,22.2929292 27.8595341,22.264221 27.8595341,22.2342079 C27.8595341,22.2054997 27.8595341,22.1754866 27.8287937,22.1180703 C27.8287937,22.0880572 27.7993898,22.059349 27.7993898,22.059349 C27.7686493,22.0293359 27.7686493,22.0006277 27.7392454,21.9706146 C27.708505,21.9118933 27.6791011,21.8831851 27.6791011,21.8831851 C27.6496972,21.8544769 27.6189567,21.8244638 27.5895528,21.7957556 C27.5588124,21.7657425 27.5294085,21.7370344 27.5294085,21.7370344 C27.4692641,21.6496049 27.3489754,21.5321623 27.1391385,21.3272903 C26.9293016,21.1211133 26.779609,20.9462544 26.6887242,20.8288118 C26.5991759,20.7113692 26.4788872,20.5652185 26.3291946,20.3603464 C26.1487616,20.1554744 26.0284729,19.9506023 25.9095207,19.7157172 C25.7892321,19.5108451 25.6689434,19.27596 25.5486547,19.0123667 C26.9587055,18.2215867 28.0386306,17.2559477 28.8191706,16.11284 C29.6291144,14.9997454 30.0193844,13.7705131 30.0193844,12.4525465 C30.0193844,11.1332749 29.598374,9.87402954 28.7590262,8.70221365 C27.9183419,7.53170267 26.779609,6.56475882 25.3388177,5.80268701 C25.608799,6.6234801 25.7290877,7.44296828 25.7290877,8.26376137 C25.7290877,9.72787879 25.3695582,11.1045667 24.6197586,12.4225334 C23.8686226,13.7405 22.7886974,14.8836077 21.3786466,15.8792598 C20.0888845,16.7861774 18.6186894,17.489528 16.9693978,17.9880064 C15.3187696,18.48518 13.5785932,18.7200651 11.8090129,18.7200651 C11.4494833,18.7200651 10.9696651,18.691357 10.3094138,18.6613439 C12.5588124,20.0967531 15.1984809,20.8288118 18.2284194,20.8288118 L18.2284194,20.8288118 Z" id="Icon-Contact-Fill-240" sketch:type="MSShapeGroup"/> </g> </g> </g> </symbol><symbol viewBox="0 0 27 27" id="icon-Icon-Facebook"><title>Icon-Facebook</title><desc>Created with Sketch.</desc> <!-- Generator: Sketch 3.1.1 (8761) - http://www.bohemiancoding.com/sketch -->    <g id="Icon-Facebook-Welcome" stroke="none" stroke-width="1" fill="none" fill-rule="evenodd" sketch:type="MSPage"> <g id="Icon-Facebook-Icon-Facebook" sketch:type="MSArtboardGroup" transform="translate(-11.000000, -11.000000)" stroke="#FFFFFF" stroke-width="2"> <g id="Icon-Facebook-Facebook-2" sketch:type="MSLayerGroup" transform="translate(11.000000, 11.000000)"> <path d="M23.1833333,0 L5.35,0 C2.52898958,0 0,2.03836634 0,4.45544554 L0,22.2772277 C0,24.7277228 2.52898958,26.7326733 5.35,26.7326733 L23.1833333,26.7326733 C25.2230208,26.7326733 26.75,24.7277228 26.75,22.2772277 L26.75,4.45544554 C26.75,2.03836634 25.2230208,0 23.1833333,0 L23.1833333,0 Z" id="Icon-Facebook-Path-copy" stroke-linecap="round" stroke-linejoin="round" sketch:type="MSShapeGroup"/> <path d="M18.7319661,8.26911548 C18.7319661,8.26911548 18.0365489,8.23931099 16.6421224,8.04438525 C15.2476959,7.84945932 13.3750003,7.99209833 13.3750001,9.90550464 C13.3749999,11.8189109 13.3750001,25.6641727 13.3750001,25.6641727" id="Icon-Facebook-Path-26" sketch:type="MSShapeGroup"/> <path d="M10.7044627,14.2574257 L16.9461294,14.2574257" id="Icon-Facebook-Line" stroke-linecap="square" sketch:type="MSShapeGroup"/> </g> </g> </g> </symbol><symbol viewBox="0 0 13 21" id="icon-Icon-Github"><title>Icon-Github</title><desc>Created with Sketch.</desc> <!-- Generator: Sketch 3.1.1 (8761) - http://www.bohemiancoding.com/sketch -->    <g id="Icon-Github-Welcome" stroke="none" stroke-width="1" fill="none" fill-rule="evenodd" sketch:type="MSPage"> <g id="Icon-Github-Icon-Github" sketch:type="MSArtboardGroup" transform="translate(-18.000000, -14.000000)" stroke-width="2"> <g id="Icon-Github-Github-2" sketch:type="MSLayerGroup" transform="translate(19.000000, 15.000000)"> <ellipse id="Icon-Github-Oval-3" stroke="#FFFFFF" sketch:type="MSShapeGroup" cx="4.77244318" cy="4.58274399" rx="3.81998106" ry="3.69165488"/> <ellipse id="Icon-Github-Oval-4" stroke="#FFFFFF" sketch:type="MSShapeGroup" cx="4.90416667" cy="15.5304102" rx="4.90416667" ry="3.1824611"/> <path d="M4.74204545,8.27439887 C4.74204545,8.27439887 1.58068182,10.311174 4.74204545,12.3479491" id="Icon-Github-Path-27" stroke="#FFFFFF" sketch:type="MSShapeGroup"/> <path d="M7.37651515,2.03677511 C7.376718,2.03677511 10.7,0 10.7,0" id="Icon-Github-Path-28" stroke="#FFFDFD" sketch:type="MSShapeGroup"/> </g> </g> </g> </symbol><symbol viewBox="0 0 27 27" id="icon-Icon-Instagram"><title>Icon-Instagram</title><desc>Created with Sketch.</desc> <!-- Generator: Sketch 3.1.1 (8761) - http://www.bohemiancoding.com/sketch -->    <g id="Icon-Instagram-Welcome" stroke="none" stroke-width="1" fill="none" fill-rule="evenodd" sketch:type="MSPage"> <g id="Icon-Instagram-Icon-Instagram" sketch:type="MSArtboardGroup" transform="translate(-11.000000, -11.000000)"> <g id="Icon-Instagram-Instagram-2" sketch:type="MSLayerGroup" transform="translate(12.000000, 12.000000)"> <path d="M21.6377778,0 L4.99333333,0 C2.36039028,0 0,1.90247525 0,4.15841584 L0,20.7920792 C0,23.0792079 2.36039028,24.950495 4.99333333,24.950495 L21.6377778,24.950495 C23.5414861,24.950495 24.9666667,23.0792079 24.9666667,20.7920792 L24.9666667,4.15841584 C24.9666667,1.90247525 23.5414861,0 21.6377778,0 L21.6377778,0 Z" id="Icon-Instagram-Path" stroke="#FFFFFF" stroke-width="2" stroke-linecap="round" stroke-linejoin="round" sketch:type="MSShapeGroup"/> <path d="M17.8333333,12.0639756 C17.8333333,15.4255399 15.4454915,17.8217822 12.8948718,17.8217822 C9.53212403,17.8217822 7.13333333,15.4255399 7.13333333,12.0639756 C7.13333333,9.52694451 9.53212403,7.12871287 12.8948718,7.12871287 C15.4454915,7.12970758 17.8333333,9.52694451 17.8333333,12.0639756 L17.8333333,12.0639756 Z" id="Icon-Instagram-Path" stroke="#FFFFFF" stroke-width="2" stroke-linecap="round" stroke-linejoin="round" sketch:type="MSShapeGroup"/> <path d="M21.4,5.04950495 C21.4,5.22772277 21.2811111,5.34653465 21.1027778,5.34653465 L19.9138889,5.34653465 C19.7355556,5.34653465 19.6166667,5.22772277 19.6166667,5.04950495 L19.6166667,3.86138614 C19.6166667,3.68316832 19.7355556,3.56435644 19.9138889,3.56435644 L21.1027778,3.56435644 C21.2811111,3.56435644 21.4,3.68316832 21.4,3.86138614 L21.4,5.04950495 L21.4,5.04950495 Z" id="Icon-Instagram-Path" fill="#FFFFFF" sketch:type="MSShapeGroup"/> <path d="M0,8.91089109 L8.025,8.91089109 L0,8.91089109 Z" id="Icon-Instagram-Path" stroke="#FFFFFF" stroke-width="2" stroke-linecap="round" stroke-linejoin="round" sketch:type="MSShapeGroup"/> <path d="M16.9416667,8.91089109 L24.9666667,8.91089109 L16.9416667,8.91089109 Z" id="Icon-Instagram-Path-copy" stroke="#FFFFFF" stroke-width="2" stroke-linecap="round" stroke-linejoin="round" sketch:type="MSShapeGroup"/> </g> </g> </g> </symbol><symbol viewBox="0 0 29 29" id="icon-Icon-LinkedIn"><title>Icon-LinkedIn</title><desc>Created with Sketch.</desc> <!-- Generator: Sketch 3.1.1 (8761) - http://www.bohemiancoding.com/sketch -->    <g id="Icon-LinkedIn-Welcome" stroke="none" stroke-width="1" fill="none" fill-rule="evenodd" sketch:type="MSPage"> <g id="Icon-LinkedIn-Icon-LinkedIn" sketch:type="MSArtboardGroup" transform="translate(-10.000000, -10.000000)"> <g id="Icon-LinkedIn-Linkedin-2" sketch:type="MSLayerGroup" transform="translate(11.000000, 11.000000)"> <path d="M23.1833333,0 L5.35,0 C2.52898958,0 0,2.03836634 0,4.45544554 L0,22.2772277 C0,24.7277228 2.52898958,26.7326733 5.35,26.7326733 L23.1833333,26.7326733 C25.2230208,26.7326733 26.75,24.7277228 26.75,22.2772277 L26.75,4.45544554 C26.75,2.03836634 25.2230208,0 23.1833333,0 L23.1833333,0 Z" id="Icon-LinkedIn-Path-copy" stroke="#FFFFFF" stroke-width="2" sketch:type="MSShapeGroup"/> <path d="M8.025,20.4844693 L8.025,8.90031088 L6.24166667,8.90031088 L6.24166667,20.4844693 L8.025,20.4844693 Z" id="Icon-LinkedIn-Path" fill="#FFFFFF" sketch:type="MSShapeGroup"/> <path d="M11.5916667,9.15314535 L11.5916667,20.4950495 L13.3742381,20.4950495 L13.3742381,14.2404849 C13.3742381,11.9060347 14.5749194,10.6639175 17.0212331,10.6639175 C18.7521155,10.6639175 19.6159047,11.6639575 19.6159047,13.866269 L19.6159047,20.4950495 L21.4,20.4950495 L21.4,13.1613523 C21.4,10.804879 20.2173336,8.88173925 17.3556081,8.88173925 C15.7170395,8.88173925 13.9742773,9.63765384 13.3742381,11.5756879 L13.3742381,9.15314537 L11.5916667,9.15314535 Z" id="Icon-LinkedIn-Path" fill="#FFFFFF" sketch:type="MSShapeGroup"/> <rect id="Icon-LinkedIn-Rectangle-6" fill="#FFFFFF" sketch:type="MSShapeGroup" x="6.24166667" y="5.34653465" width="1.78333333" height="1.78217822"/> </g> </g> </g> </symbol><symbol viewBox="0 0 30 22" id="icon-Icon-Mail"><title>Icon-Mail</title><desc>Created with Sketch.</desc> <!-- Generator: Sketch 3.1.1 (8761) - http://www.bohemiancoding.com/sketch -->    <g id="Icon-Mail-Welcome" stroke="none" stroke-width="1" fill="none" fill-rule="evenodd" sketch:type="MSPage"> <g id="Icon-Mail-Icon-Mail" sketch:type="MSArtboardGroup" transform="translate(-9.000000, -13.000000)" stroke="#FFFFFF" stroke-width="2"> <g id="Icon-Mail-Mail-2" sketch:type="MSLayerGroup" transform="translate(10.000000, 14.000000)"> <rect id="Icon-Mail-Rectangle-8" sketch:type="MSShapeGroup" x="0" y="0" width="27.6416667" height="19.6039604" rx="2"/> <path d="M-0.00693591083,3.01378493 L10.6777364,11.4727318 C12.4097903,12.8439814 15.215171,12.8510026 16.9500584,11.4834252 L27.6347308,3.06090983" id="Icon-Mail-Path-28" sketch:type="MSShapeGroup"/> <path d="M19.1886659,9.79977122 L27.6347308,17.7255911" id="Icon-Mail-Path-28-copy" sketch:type="MSShapeGroup"/> <path d="M2.29653631,9.79977122 L10.7426011,17.7255911" id="Icon-Mail-Path-28-copy-2" sketch:type="MSShapeGroup" transform="translate(5.374769, 12.817974) scale(-1, 1) translate(-5.374769, -12.817974) "/> </g> </g> </g> </symbol><symbol viewBox="0 0 30 26" id="icon-Icon-Portfolio"><title>Icon-Portfolio</title><desc>Created with Sketch.</desc> <!-- Generator: Sketch 3.1.1 (8761) - http://www.bohemiancoding.com/sketch -->    <g id="Icon-Portfolio-Welcome" stroke="none" stroke-width="1" fill="none" fill-rule="evenodd" sketch:type="MSPage"> <g id="Icon-Portfolio-Icon-Portfolio" sketch:type="MSArtboardGroup" transform="translate(-9.000000, -11.000000)" fill="#FFFFFF"> <path d="M9.80336582,36.1126768 C10.3424363,36.6248578 10.9722414,36.8956969 11.6901124,36.8956969 L36.3098876,36.8956969 C37.0277586,36.8956969 37.6575637,36.6248578 38.1966342,36.1126768 C38.705015,35.5709986 38.9745502,34.9394875 38.9745502,34.2168029 L38.9745502,26.1519644 L27.7434708,26.1519644 L27.7434708,28.8308584 C27.7434708,29.1311949 27.6540705,29.3725367 27.4445802,29.5830403 C27.23509,29.793544 26.9655547,29.9142149 26.6960195,29.9142149 L21.3346702,29.9142149 C21.0344453,29.9142149 20.7955997,29.793544 20.5861094,29.5830403 C20.3766192,29.3725367 20.2565292,29.1311949 20.2565292,28.8308584 L20.2565292,26.1519644 L9.02544978,26.1519644 L9.02544978,34.2168029 C9.02544978,34.9394875 9.29498501,35.5709986 9.80336582,36.1126768 L9.80336582,36.1126768 Z M38.9745502,24.5269296 L38.9745502,18.0562878 C38.9745502,17.3336031 38.705015,16.7020921 38.1966342,16.1604138 C37.6575637,15.6482329 37.0277586,15.3773938 36.3098876,15.3773938 L30.4094678,15.3773938 L30.4094678,12.6998406 C30.4094678,12.2479951 30.2600225,11.8873232 29.9304423,11.5856459 C29.6302174,11.2544713 29.2405922,11.1043031 28.8216117,11.1043031 L19.2077436,11.1043031 C18.7580735,11.1043031 18.3697826,11.2544713 18.0695577,11.5856459 C17.7399775,11.8873232 17.5905322,12.2479951 17.5905322,12.6998406 L17.5905322,15.3773938 L11.6901124,15.3773938 C10.9722414,15.3773938 10.3424363,15.6482329 9.80336582,16.1604138 C9.29498501,16.7020921 9.02544978,17.3336031 9.02544978,18.0562878 L9.02544978,24.5269296 L38.9745502,24.5269296 L38.9745502,24.5269296 Z M19.7174588,13.2415188 L28.2825412,13.2415188 L28.2825412,15.3787345 L19.7174588,15.3787345 L19.7174588,13.2415188 Z M21.8737406,28.2891801 L26.156949,28.2891801 L26.156949,26.1519644 L21.8737406,26.1519644 L21.8737406,28.2891801 Z" id="Icon-Portfolio-Fill-48" sketch:type="MSShapeGroup"/> </g> </g> </symbol><symbol viewBox="0 0 30 31" id="icon-Icon-Projects"><title>Icon-Projects</title><desc>Created with Sketch.</desc> <!-- Generator: Sketch 3.1.1 (8761) - http://www.bohemiancoding.com/sketch -->    <g id="Icon-Projects-Welcome" stroke="none" stroke-width="1" fill="none" fill-rule="evenodd" sketch:type="MSPage"> <g id="Icon-Projects-Icon-Projects" sketch:type="MSArtboardGroup" transform="translate(-9.000000, -9.000000)" fill="#FFFFFF"> <g id="Icon-Projects-Projects-2" sketch:type="MSLayerGroup" transform="translate(9.000000, 9.000000)"> <path d="M0.574527736,20.7223531 L14.2621139,29.9041011 C14.5022939,30.0234665 14.7411394,30.1146671 14.9813193,30.1146671 C15.2201649,30.1146671 15.4603448,30.0234665 15.6991904,29.9041011 L29.3867766,20.7223531 C29.7764018,20.4514338 29.9565367,20.0893141 29.9565367,19.6386761 L29.9565367,10.4864341 C29.9565367,10.0049489 29.7764018,9.64417034 29.3867766,9.40275716 L15.6991904,0.221009098 C15.4603448,0.0707964503 15.2201649,0.0104431545 14.9813193,0.0104431545 C14.7411394,0.0104431545 14.5022939,0.0707964503 14.2621139,0.221009098 L0.574527736,9.40275716 C0.186236882,9.64417034 0.00610194903,10.0049489 0.00610194903,10.4864341 L0.00610194903,19.6386761 C0.00610194903,20.0893141 0.186236882,20.4514338 0.574527736,20.7223531 L0.574527736,20.7223531 Z M2.58136432,12.8952012 L5.81578711,15.0625551 L2.58136432,17.229909 L2.58136432,12.8952012 L2.58136432,12.8952012 Z M8.12284858,16.6277173 L13.6936882,20.3602333 L13.6936882,26.4116571 L3.63014993,19.6386761 L8.12284858,16.6277173 L8.12284858,16.6277173 Z M13.6936882,3.71345315 L13.6936882,9.76353575 L8.12284858,13.497393 L3.63014993,10.4864341 L13.6936882,3.71345315 L13.6936882,3.71345315 Z M14.9813193,11.991243 L19.534063,15.0625551 L14.9813193,18.10302 L10.4285757,15.0625551 L14.9813193,11.991243 L14.9813193,11.991243 Z M16.2689505,20.3602333 L21.8397901,16.6277173 L26.3324888,19.6386761 L16.2689505,26.4116571 L16.2689505,20.3602333 L16.2689505,20.3602333 Z M16.2689505,3.71345315 L26.3324888,10.4864341 L21.8397901,13.497393 L16.2689505,9.76353575 L16.2689505,3.71345315 L16.2689505,3.71345315 Z M27.37994,12.8952012 L27.37994,17.229909 L24.1455172,15.0625551 L27.37994,12.8952012 L27.37994,12.8952012 Z" id="Icon-Projects-Fill-154" sketch:type="MSShapeGroup"/> </g> </g> </g> </symbol><symbol viewBox="0 0 29 29" id="icon-Icon-Skype"><title>Icon-Skype</title><desc>Created with Sketch.</desc> <!-- Generator: Sketch 3.1.1 (8761) - http://www.bohemiancoding.com/sketch -->    <g id="Icon-Skype-Welcome" stroke="none" stroke-width="1" fill="none" fill-rule="evenodd" sketch:type="MSPage"> <g id="Icon-Skype-Icon-Skype" sketch:type="MSArtboardGroup" transform="translate(-9.000000, -9.000000)" stroke="#FFFFFF" stroke-width="2"> <g id="Icon-Skype-Skype-2" sketch:type="MSLayerGroup" transform="translate(11.070833, 10.633663)"> <path d="M24.6679583,15.4871287 C24.8552083,14.6316832 24.9631,13.750396 24.9631,12.8316832 C24.9631,6.00594059 19.4160417,0.472277228 12.585875,0.472277228 C11.863625,0.472277228 11.1592083,0.534653465 10.4735167,0.65049505 C9.36695833,-0.0445544554 8.05620833,-0.445544554 6.64826667,-0.445544554 C2.688375,-0.445544554 -0.521625,2.76326733 -0.521625,6.71881188 C-0.521625,8.04653465 -0.164958333,9.28514851 0.459208333,10.3455446 C0.298708333,11.1564356 0.209541667,11.9851485 0.209541667,12.8316832 C0.209541667,19.6663366 5.74679167,25.2 12.585875,25.2 C13.361625,25.2 14.1195417,25.1287129 14.8507083,24.9950495 C15.8582917,25.5386139 17.0174583,25.8415842 18.2399333,25.8415842 C22.2069583,25.8415842 25.4169583,22.6336634 25.4169583,18.6772277 C25.4169583,17.5277228 25.15035,16.449505 24.6679583,15.4871287 L24.6679583,15.4871287 Z" id="Icon-Skype-Path" stroke-linecap="square" sketch:type="MSShapeGroup"/> <path d="M17.0986,7.88435644 C16.5707333,6.53524752 14.8614083,5.48554455 12.3174833,5.48554455 C8.65719167,5.48554455 7.4472,7.09752475 7.4472,8.61237624 C7.4472,10.1441584 8.43873333,11.4210891 11.2581833,11.9735644 C14.0161083,12.5144554 16.8997583,13.0651485 17.5283833,14.7867327 C18.1677083,16.540396 17.4722083,17.9607921 16.692,18.6291089 C15.9117917,19.2974257 14.474425,19.9381188 12.54575,19.9381188 C10.6723583,19.9381188 8.13645833,19.6413861 7.02276667,16.4851485" id="Icon-Skype-Stroke-2" stroke-linecap="round" stroke-linejoin="round" sketch:type="MSShapeGroup"/> </g> </g> </g> </symbol><symbol viewBox="0 0 32 26" id="icon-Icon-Twitter"><title>Icon-Twitter</title><desc>Created with Sketch.</desc> <!-- Generator: Sketch 3.1.1 (8761) - http://www.bohemiancoding.com/sketch -->    <g id="Icon-Twitter-Welcome" stroke="none" stroke-width="1" fill="none" fill-rule="evenodd" sketch:type="MSPage"> <g id="Icon-Twitter-Icon-Twitter" sketch:type="MSArtboardGroup" transform="translate(-8.000000, -11.000000)" stroke="#FFFFFF" stroke-width="2" stroke-linecap="round" stroke-linejoin="round"> <path d="M34.2278625,16.5772277 C35.3611708,15.8991089 36.2251958,14.8306931 36.6353625,13.5466337 C35.5742792,14.1793069 34.3972792,14.6337624 33.1489458,14.8832673 C32.1502792,13.8139604 30.7236125,13.1456436 29.1444708,13.1456436 C26.1145875,13.1456436 23.6625042,15.6059406 23.6625042,18.6258416 C23.6625042,19.0535644 23.7070875,19.4732673 23.7944708,19.8733663 C19.2398375,19.6505941 15.1916708,17.4683168 12.4890292,14.1525743 C12.0164458,14.9634653 11.7489458,15.8991089 11.7489458,16.9069307 C11.7489458,18.8049505 12.7119458,20.480198 14.1823042,21.4684158 C13.2817208,21.4327723 12.4444458,21.1921782 11.7043625,20.7822772 L11.6954458,20.8535644 C11.6954458,23.5009901 13.5946958,25.7189109 16.0993875,26.2179208 C15.6446375,26.3444554 15.1542208,26.4157426 14.6539958,26.4157426 C14.2991125,26.4157426 13.9593875,26.380099 13.6196625,26.3177228 C14.3249708,28.4919802 16.3499458,30.0772277 18.7467458,30.1235644 C16.8751375,31.5929703 14.5024125,32.4671287 11.9353042,32.4671287 C11.4894708,32.4671287 11.0525542,32.439505 10.6245542,32.3851485 C13.0498875,33.9445545 15.9388875,34.8543564 19.0320792,34.8543564 C29.1355542,34.8543564 34.6558625,26.5048515 34.6558625,19.260297 C34.6558625,19.029505 34.6451625,18.7880198 34.6362458,18.5563366 C35.7080292,17.7793069 36.6353625,16.8169307 37.3754458,15.7217822 C36.3937208,16.1575248 35.3335292,16.4515842 34.2278625,16.5772277 Z" id="Icon-Twitter-Twitter-2" sketch:type="MSShapeGroup"/> </g> </g> </symbol><symbol viewBox="0 0 24 28" id="icon-Icon-Work"><title>Icon-Work</title><desc>Created with Sketch.</desc> <!-- Generator: Sketch 3.1.1 (8761) - http://www.bohemiancoding.com/sketch -->    <g id="Icon-Work-Welcome" stroke="none" stroke-width="1" fill="none" fill-rule="evenodd" sketch:type="MSPage"> <g id="Icon-Work-Icon-Work" sketch:type="MSArtboardGroup" transform="translate(-12.000000, -10.000000)" fill="#FFFFFF"> <g id="Icon-Work-Work-2" sketch:type="MSLayerGroup" transform="translate(12.000000, 11.000000)"> <path d="M0.44269958,26.3072022 C0.7216049,26.6004559 1.08356203,26.7351618 1.50006064,26.7351618 L22.3398662,26.7351618 C22.7576044,26.7351618 23.1195615,26.6004559 23.3972272,26.3072022 C23.7034033,26.0389824 23.8422362,25.6908927 23.8422362,25.2903511 L23.8422362,8.11116947 C23.8422362,7.71062787 23.730674,7.25525021 23.5360601,6.77364662 C23.3141754,6.31946106 23.0637804,5.91772737 22.7848751,5.65069963 L17.9443183,0.994403523 C17.665413,0.727375789 17.2489144,0.485381905 16.7753951,0.271998135 C16.2746051,0.0848403038 15.8010859,-0.022447625 15.3845873,-0.022447625 L1.50006064,-0.022447625 C1.08356203,-0.022447625 0.7216049,0.111066242 0.44269958,0.405512002 C0.137763097,0.673731824 -0.00230935303,1.02062946 -0.00230935303,1.42236315 L-0.00230935303,25.2903511 C-0.00230935303,25.6908927 0.137763097,26.0389824 0.44269958,26.3072022 L0.44269958,26.3072022 Z M1.97357989,1.8777408 L13.909488,1.8777408 L13.909488,8.08494353 C13.909488,8.48667722 14.0483209,8.83357486 14.354497,9.10179468 C14.6334023,9.39624044 14.9953594,9.52975431 15.411858,9.52975431 L21.8675865,9.52975431 L21.8675865,24.8349734 L1.97357989,24.8349734 L1.97357989,1.8777408 L1.97357989,1.8777408 Z M6.091462,20.8748567 C6.1745138,20.9547266 6.31458625,21.0083706 6.45341912,21.0083706 L17.3877473,21.0083706 C17.5265801,21.0083706 17.6381423,20.9547266 17.7497044,20.8748567 C17.8327562,20.7949868 17.8885373,20.661473 17.8885373,20.526767 L17.8885373,19.5909779 C17.8885373,19.4562719 17.8327562,19.322758 17.7497044,19.2428881 C17.6381423,19.1630182 17.5265801,19.1093743 17.3877473,19.1093743 L6.45341912,19.1093743 C6.31458625,19.1093743 6.1745138,19.1630182 6.091462,19.2428881 C6.00841019,19.322758 5.95262913,19.4562719 5.95262913,19.5909779 L5.95262913,20.526767 C5.95262913,20.661473 6.00841019,20.7949868 6.091462,20.8748567 L6.091462,20.8748567 Z M6.091462,17.0482539 C6.1745138,17.1293159 6.31458625,17.1829599 6.45341912,17.1829599 L17.3877473,17.1829599 C17.5265801,17.1829599 17.6381423,17.1293159 17.7497044,17.0482539 C17.8327562,16.968384 17.8885373,16.8348702 17.8885373,16.7013563 L17.8885373,15.7643751 C17.8885373,15.6308612 17.8327562,15.4961552 17.7497044,15.4162853 C17.6381423,15.3364154 17.5265801,15.2827715 17.3877473,15.2827715 L6.45341912,15.2827715 C6.31458625,15.2827715 6.1745138,15.3364154 6.091462,15.4162853 C6.00841019,15.4961552 5.95262913,15.6308612 5.95262913,15.7643751 L5.95262913,16.7013563 C5.95262913,16.8348702 6.00841019,16.968384 6.091462,17.0482539 L6.091462,17.0482539 Z M6.091462,13.2228432 C6.1745138,13.3027131 6.31458625,13.3563571 6.45341912,13.3563571 L17.3877473,13.3563571 C17.5265801,13.3563571 17.6381423,13.3027131 17.7497044,13.2228432 C17.8327562,13.1417812 17.8885373,13.0082674 17.8885373,12.8747535 L17.8885373,11.9377723 C17.8885373,11.8042584 17.8327562,11.6707445 17.7497044,11.5896825 C17.6381423,11.5098126 17.5265801,11.4561687 17.3877473,11.4561687 L6.45341912,11.4561687 C6.31458625,11.4561687 6.1745138,11.5098126 6.091462,11.5896825 C6.00841019,11.6707445 5.95262913,11.8042584 5.95262913,11.9377723 L5.95262913,12.8747535 C5.95262913,13.0082674 6.00841019,13.1417812 6.091462,13.2228432 L6.091462,13.2228432 Z M15.8853773,1.98383664 C16.1915533,2.09112457 16.3861673,2.1984125 16.5250001,2.33192637 L21.3940672,7.01444842 C21.5329001,7.14796229 21.6444622,7.3363122 21.7560244,7.62956588 L15.8853773,7.62956588 L15.8853773,1.98383664 L15.8853773,1.98383664 Z" id="Icon-Work-Fill-32" sketch:type="MSShapeGroup"/> </g> </g> </g> </symbol></svg>