<svg width="27px" height="27px" viewBox="0 0 27 27">
    <g id="Welcome" stroke="none" stroke-width="1" fill="none" fill-rule="evenodd">
        <g id="Icon-Views" class="iconfill" transform="translate(-11.000000, -11.000000)">
            <path d="M24,37.5 C24,36 31,27.28 31,23.5 C31,19.733125 24,11 24,9.5 C24,11 17,19.733125 17,23.5 C17,27.28 24,36 24,37.5 Z M19.5454545,23.495625 C19.5454545,21.1725 21.6836364,19.125 24,19.125 C26.3163636,19.125 28.4290909,21.19875 28.4290909,23.50875 C28.4290909,25.831875 26.3036364,28.28625 23.9745455,28.28625 C21.6581818,28.28625 19.5454545,25.81875 19.5454545,23.495625 L19.5454545,23.495625 Z" id="Shape-3" transform="translate(24.000000, 23.500000) rotate(-90.000000) translate(-24.000000, -23.500000) "></path>
        </g>
    </g>
</svg>