<?xml version="1.0" encoding="UTF-8" standalone="no"?>
<svg width="29px" height="29px" viewBox="0 0 29 29" version="1.1" xmlns="http://www.w3.org/2000/svg" xmlns:xlink="http://www.w3.org/1999/xlink" xmlns:sketch="http://www.bohemiancoding.com/sketch/ns">
    <!-- Generator: Sketch 3.1.1 (8761) - http://www.bohemiancoding.com/sketch -->
    <title>Icon-LinkedIn</title>
    <desc>Created with Sketch.</desc>
    <defs></defs>
    <g id="Welcome" stroke="none" stroke-width="1" fill="none" fill-rule="evenodd" sketch:type="MSPage">
        <g id="Icon-LinkedIn" sketch:type="MSArtboardGroup" transform="translate(-10.000000, -10.000000)">
            <g id="Linkedin-2" sketch:type="MSLayerGroup" transform="translate(11.000000, 11.000000)">
                <path d="M23.1833333,0 L5.35,0 C2.52898958,0 0,2.03836634 0,4.45544554 L0,22.2772277 C0,24.7277228 2.52898958,26.7326733 5.35,26.7326733 L23.1833333,26.7326733 C25.2230208,26.7326733 26.75,24.7277228 26.75,22.2772277 L26.75,4.45544554 C26.75,2.03836634 25.2230208,0 23.1833333,0 L23.1833333,0 Z" id="Path-copy" stroke="#FFFFFF" stroke-width="2" sketch:type="MSShapeGroup"></path>
                <path d="M8.025,20.4844693 L8.025,8.90031088 L6.24166667,8.90031088 L6.24166667,20.4844693 L8.025,20.4844693 Z" id="Path" fill="#FFFFFF" sketch:type="MSShapeGroup"></path>
                <path d="M11.5916667,9.15314535 L11.5916667,20.4950495 L13.3742381,20.4950495 L13.3742381,14.2404849 C13.3742381,11.9060347 14.5749194,10.6639175 17.0212331,10.6639175 C18.7521155,10.6639175 19.6159047,11.6639575 19.6159047,13.866269 L19.6159047,20.4950495 L21.4,20.4950495 L21.4,13.1613523 C21.4,10.804879 20.2173336,8.88173925 17.3556081,8.88173925 C15.7170395,8.88173925 13.9742773,9.63765384 13.3742381,11.5756879 L13.3742381,9.15314537 L11.5916667,9.15314535 Z" id="Path" fill="#FFFFFF" sketch:type="MSShapeGroup"></path>
                <rect id="Rectangle-6" fill="#FFFFFF" sketch:type="MSShapeGroup" x="6.24166667" y="5.34653465" width="1.78333333" height="1.78217822"></rect>
            </g>
        </g>
    </g>
</svg>