<svg width="27px" height="27px" viewBox="0 0 27 27">
    <defs></defs>
    <g id="Welcome" stroke="none" stroke-width="1" fill="none" fill-rule="evenodd">
        <g id="Icon-Like" class="iconfill" transform="translate(3,3)">
            <g id="fa-heart-2">
                <path d="M0.555,7.394 C0.757,8 0.981,8.494 1.228,8.921 C1.475,9.347 1.767,9.751 2.081,10.133 C2.395,10.537 2.62,10.806 2.777,10.963 C2.911,11.12 3.046,11.21 3.113,11.277 L10.924,18.819 C11.082,18.976 11.261,19.044 11.486,19.044 C11.71,19.044 11.89,18.976 12.047,18.819 L19.835,11.322 C21.743,9.392 22.708,7.529 22.708,5.666 C22.708,3.848 22.17,2.411 21.115,1.356 C20.06,0.324 18.601,-0.192 16.715,-0.192 C16.199,-0.192 15.683,-0.103 15.144,0.077 C14.606,0.257 14.089,0.503 13.64,0.818 C13.169,1.11 12.765,1.401 12.428,1.671 C12.114,1.94 11.777,2.209 11.486,2.524 C11.194,2.209 10.857,1.94 10.543,1.671 C10.206,1.401 9.802,1.11 9.331,0.818 C8.882,0.503 8.366,0.257 7.827,0.077 C7.288,-0.103 6.772,-0.192 6.256,-0.192 C4.37,-0.192 2.911,0.324 1.856,1.356 C0.801,2.411 0.263,3.848 0.263,5.666 C0.263,6.227 0.353,6.811 0.555,7.394" id="Fill-180"></path>
            </g>
        </g>
    </g>
</svg>