<svg width="27px" height="27px" viewBox="0 0 27 27">
    <g id="Welcome" stroke="none" stroke-width="1" fill="none" fill-rule="evenodd">
        <g id="Icon-Close" class="iconfill">
            <g id="fa-times-circle-o-2" transform="translate(5,0)">
                <path d="M5.38305263,20.96335 C7.09905263,21.9443 8.97021053,22.43535 10.9976842,22.43535 C12.9985263,22.43535 14.8696842,21.9443 16.5845263,20.96335 C18.2738947,19.9571 19.6251579,18.61505 20.6394737,16.9372 C21.6271579,15.2329 22.1204211,13.3745 22.1204211,11.36085 C22.1204211,9.37365 21.6271579,7.51525 20.6394737,5.8121 C19.6251579,4.13425 18.2738947,2.79105 16.5845263,1.7848 C14.8696842,0.80385 12.9985263,0.31395 10.9976842,0.31395 C8.97021053,0.31395 7.09905263,0.80385 5.38305263,1.7848 C3.69368421,2.79105 2.34242105,4.13425 1.32926316,5.8121 C0.341578947,7.51525 -0.152842105,9.37365 -0.152842105,11.36085 C-0.152842105,13.3745 0.341578947,15.2329 1.32926316,16.9372 C2.34242105,18.61505 3.69368421,19.9571 5.38305263,20.96335 L5.38305263,20.96335 Z M7.02031579,4.59885 C8.24189474,3.90195 9.54221053,3.5397 10.9976842,3.5397 C12.4265263,3.5397 13.7256842,3.90195 14.9472632,4.59885 C16.1433684,5.29575 17.1044211,6.25025 17.8061053,7.4382 C18.5077895,8.65145 18.8725263,9.94175 18.8725263,11.36085 C18.8725263,12.8064 18.5077895,14.09785 17.8061053,15.3111 C17.1044211,16.4979 16.1433684,17.45355 14.9472632,18.15045 C13.7256842,18.84735 12.4265263,19.20845 10.9976842,19.20845 C9.54221053,19.20845 8.24189474,18.84735 7.02031579,18.15045 C5.82536842,17.45355 4.86315789,16.4979 4.16147368,15.3111 C3.45978947,14.09785 3.09621053,12.8064 3.09621053,11.36085 C3.09621053,9.94175 3.45978947,8.65145 4.16147368,7.4382 C4.86315789,6.25025 5.82536842,5.29575 7.02031579,4.59885 L7.02031579,4.59885 Z M6.21557895,14.01965 L8.32063158,16.11035 C8.42368421,16.21385 8.52789474,16.2656 8.65757895,16.2656 C8.78842105,16.2656 8.89147368,16.21385 8.99568421,16.11035 L10.9976842,14.1496 L12.9718947,16.11035 C13.0761053,16.21385 13.1803158,16.2656 13.31,16.2656 C13.4396842,16.2656 13.5438947,16.21385 13.6481053,16.11035 L15.7531579,14.01965 C15.8573684,13.9173 15.9094737,13.8138 15.9094737,13.68385 C15.9094737,13.55505 15.8573684,13.45155 15.7531579,13.3492 L13.7777895,11.36085 L15.7531579,9.4001 C15.8573684,9.2966 15.9094737,9.1931 15.9094737,9.0643 C15.9094737,8.93435 15.8573684,8.832 15.7531579,8.7285 L13.6481053,6.6378 C13.5438947,6.5343 13.4396842,6.48255 13.31,6.48255 C13.1803158,6.48255 13.0761053,6.5343 12.9718947,6.6378 L10.9976842,8.5997 L8.99568421,6.6378 C8.89147368,6.5343 8.78842105,6.48255 8.65757895,6.48255 C8.52789474,6.48255 8.42368421,6.5343 8.32063158,6.6378 L6.21557895,8.7285 C6.11136842,8.832 6.05926316,8.93435 6.05926316,9.0643 C6.05926316,9.1931 6.11136842,9.2966 6.21557895,9.4001 L8.18978947,11.36085 L6.21557895,13.3492 C6.11136842,13.45155 6.05926316,13.55505 6.05926316,13.68385 C6.05926316,13.8138 6.11136842,13.9173 6.21557895,14.01965 L6.21557895,14.01965 Z" id="Fill-234"></path>
            </g>
        </g>
    </g>
</svg>