<svg width="30px" height="26px" viewBox="0 0 30 26">
    <g id="Welcome" stroke="none" stroke-width="1" fill="none" fill-rule="evenodd" sketch:type="MSPage">
        <g id="Icon-Portfolio" class="iconfill" sketch:type="MSArtboardGroup" transform="translate(-9.000000, -11.000000)" >
            <path d="M9.80336582,36.1126768 C10.3424363,36.6248578 10.9722414,36.8956969 11.6901124,36.8956969 L36.3098876,36.8956969 C37.0277586,36.8956969 37.6575637,36.6248578 38.1966342,36.1126768 C38.705015,35.5709986 38.9745502,34.9394875 38.9745502,34.2168029 L38.9745502,26.1519644 L27.7434708,26.1519644 L27.7434708,28.8308584 C27.7434708,29.1311949 27.6540705,29.3725367 27.4445802,29.5830403 C27.23509,29.793544 26.9655547,29.9142149 26.6960195,29.9142149 L21.3346702,29.9142149 C21.0344453,29.9142149 20.7955997,29.793544 20.5861094,29.5830403 C20.3766192,29.3725367 20.2565292,29.1311949 20.2565292,28.8308584 L20.2565292,26.1519644 L9.02544978,26.1519644 L9.02544978,34.2168029 C9.02544978,34.9394875 9.29498501,35.5709986 9.80336582,36.1126768 L9.80336582,36.1126768 Z M38.9745502,24.5269296 L38.9745502,18.0562878 C38.9745502,17.3336031 38.705015,16.7020921 38.1966342,16.1604138 C37.6575637,15.6482329 37.0277586,15.3773938 36.3098876,15.3773938 L30.4094678,15.3773938 L30.4094678,12.6998406 C30.4094678,12.2479951 30.2600225,11.8873232 29.9304423,11.5856459 C29.6302174,11.2544713 29.2405922,11.1043031 28.8216117,11.1043031 L19.2077436,11.1043031 C18.7580735,11.1043031 18.3697826,11.2544713 18.0695577,11.5856459 C17.7399775,11.8873232 17.5905322,12.2479951 17.5905322,12.6998406 L17.5905322,15.3773938 L11.6901124,15.3773938 C10.9722414,15.3773938 10.3424363,15.6482329 9.80336582,16.1604138 C9.29498501,16.7020921 9.02544978,17.3336031 9.02544978,18.0562878 L9.02544978,24.5269296 L38.9745502,24.5269296 L38.9745502,24.5269296 Z M19.7174588,13.2415188 L28.2825412,13.2415188 L28.2825412,15.3787345 L19.7174588,15.3787345 L19.7174588,13.2415188 Z M21.8737406,28.2891801 L26.156949,28.2891801 L26.156949,26.1519644 L21.8737406,26.1519644 L21.8737406,28.2891801 Z" id="Fill-48" sketch:type="MSShapeGroup"></path>
        </g>
    </g>
</svg>