<svg width="27px" height="27px" viewBox="0 0 27 27">
    <g id="Welcome" stroke="none" stroke-width="1" fill="none" fill-rule="evenodd" sketch:type="MSPage">
        <g id="Icon-Behance" sketch:type="MSArtboardGroup" transform="translate(-11.000000, -11.000000)" class="iconfill">
            <g id="Behance-2" sketch:type="MSLayerGroup" transform="translate(11.000000, 16.000000)">
                <path d="M0,0 L0,16.9306931 L7.55663357,16.9306931 C10.7917419,16.9306931 13.375,15.3893835 13.375,12.2119145 C13.375,9.81695649 11.7091606,8.25193444 9.51218412,7.99109743 C11.3953069,7.68283551 12.7472924,6.14152592 12.7472924,4.22081704 C12.7472924,1.28047259 10.5744585,0 7.65320397,0 L0,0 Z M1.78333333,7.12871287 L1.78333333,1.78217822 L7.5606948,1.78217822 C9.63957801,1.78217822 11.235,2.61884967 11.235,4.49625879 C11.235,6.25122818 9.54288576,7.12871287 7.5606948,7.12871287 L1.78333333,7.12871287 Z M1.78333333,15.1485149 L1.78333333,8.91089109 L7.5598758,8.91089109 C9.61113782,8.91089109 11.5916667,9.77423002 11.5916667,11.9973278 C11.5916667,14.1772586 9.75260417,15.1485149 7.48914263,15.1485149 L1.78333333,15.1485149 Z" id="Path" sketch:type="MSShapeGroup"></path>
                <path d="M26.803008,11.5585962 C26.9252219,8.00084039 25.0576579,4.45544554 20.9757142,4.45544554 C17.822596,4.45544554 15.1583333,6.90429043 15.1583333,10.7161716 C15.1583333,14.320132 17.0893127,16.9306931 21.000157,16.9306931 C24.0066185,16.9306931 25.5781637,15.7070772 26.803008,13.3407744 L25.0196747,13.3407744 C23.6276428,15.2064922 23.1818095,15.2064922 21.0001571,15.2064922 C18.778008,15.2064926 17.0401384,14.3539757 16.9668101,11.5585962 L26.803008,11.5585962 Z M16.9416667,9.8019802 C17.0808285,7.72583444 18.6811898,6.23762376 21.0005539,6.23762376 C23.6214355,6.23762376 24.943473,7.89119118 24.9666667,9.8019802 L16.9416667,9.8019802 Z" id="Path" sketch:type="MSShapeGroup"></path>
                <rect id="Rectangle-6" sketch:type="MSShapeGroup" x="15.1583333" y="0.891089109" width="10.7" height="1.78217822" rx="1"></rect>
            </g>
        </g>
    </g>
</svg>