<?xml version="1.0" encoding="UTF-8" standalone="no"?>
<svg width="30px" height="24px" viewBox="0 0 30 24" version="1.1" xmlns="http://www.w3.org/2000/svg" xmlns:xlink="http://www.w3.org/1999/xlink" xmlns:sketch="http://www.bohemiancoding.com/sketch/ns">
    <!-- Generator: Sketch 3.1.1 (8761) - http://www.bohemiancoding.com/sketch -->
    <title>Icon-Contact</title>
    <desc>Created with Sketch.</desc>
    <defs></defs>
    <g id="Welcome" stroke="none" stroke-width="1" fill="none" fill-rule="evenodd" sketch:type="MSPage">
        <g id="Icon-Contact" sketch:type="MSArtboardGroup" transform="translate(-9.000000, -12.000000)" fill="#FFFFFF">
            <g id="Contact-2" sketch:type="MSLayerGroup" transform="translate(9.000000, 13.000000)">
                <path d="M1.21959826,11.954068 C1.99880168,13.0958708 3.07872684,14.0628147 4.45937372,14.8248865 C4.33908503,15.0884798 4.24953678,15.32206 4.12924809,15.5569452 C4.0089594,15.7618172 3.8592668,15.9666893 3.7095742,16.1715613 C3.52914117,16.3764333 3.40885247,16.5225841 3.31930422,16.6400267 C3.22975597,16.7574692 3.07872684,16.9336331 2.89963034,17.1385052 C2.6897934,17.3433772 2.5695047,17.4608198 2.50936036,17.5482492 C2.47995646,17.5482492 2.47995646,17.5782623 2.41981211,17.6069705 C2.38907167,17.6356787 2.38907167,17.6656918 2.35966776,17.6944 C2.32892732,17.6944 2.32892732,17.7244131 2.29952342,17.7831344 C2.26878297,17.8118426 2.23937907,17.8418557 2.23937907,17.8705639 C2.20997517,17.8705639 2.20997517,17.899272 2.17923472,17.9579933 C2.17923472,17.9880064 2.14983082,18.0167146 2.14983082,18.0467277 L2.14983082,18.1341572 C2.14983082,18.1928785 2.14983082,18.2215867 2.17923472,18.2515998 C2.17923472,18.3977505 2.23937907,18.5151931 2.35966776,18.6026226 C2.47995646,18.691357 2.5695047,18.7200651 2.6897934,18.7200651 L2.74993774,18.7200651 C3.31930422,18.6613439 3.79912245,18.5739144 4.18939244,18.4564718 C5.89882841,18.0467277 7.4585718,17.3433772 8.83921868,16.3764333 C9.85899949,16.5525972 10.8493764,16.6400267 11.8090129,16.6400267 C13.9087188,16.6400267 15.8894726,16.2589908 17.7191973,15.5269321 C19.5195181,14.7661652 20.9589728,13.7705131 22.009494,12.4812547 C23.0586787,11.1919962 23.5692374,9.78660007 23.5692374,8.26376137 C23.5692374,6.76963086 23.0586787,5.36423473 22.009494,4.07497626 C20.9589728,2.78571779 19.5195181,1.79006576 17.7191973,1.02929887 C15.8894726,0.297240161 13.9394593,-0.0837957434 11.8090129,-0.0837957434 C9.64916255,-0.0837957434 7.69914918,0.297240161 5.86942451,1.02929887 C4.06910374,1.79006576 2.62964905,2.78571779 1.5791278,4.07497626 C0.52994309,5.36423473 0.0193844159,6.76963086 0.0193844159,8.26376137 C0.0193844159,9.58172803 0.409654397,10.7822521 1.21959826,11.954068 L1.21959826,11.954068 Z M3.46899682,5.15936269 C4.33908503,4.19241884 5.50989497,3.40163884 7.00949401,2.84443908 C8.47968915,2.28854423 10.0995769,1.9949378 11.8090129,1.9949378 C13.4890449,1.9949378 15.1089327,2.28854423 16.5791278,2.84443908 C18.0787268,3.40163884 19.2495368,4.19241884 20.119625,5.15936269 C20.9883767,6.12500162 21.438791,7.17937495 21.438791,8.26376137 C21.438791,9.37685598 20.9883767,10.4312293 20.119625,11.3968682 C19.2495368,12.3638121 18.0787268,13.1545921 16.5791278,13.7117919 C15.1089327,14.2676867 13.4890449,14.5612931 11.8090129,14.5612931 C10.9696651,14.5612931 10.0995769,14.4725587 9.22948867,14.326408 L8.35940045,14.1802572 L7.60960094,14.6774308 C7.3088792,14.8836077 6.94934967,15.0884798 6.55907968,15.32206 L7.15918661,13.9453721 L5.53929888,13.0084413 C4.45937372,12.4225334 3.61868941,11.6904747 3.04932293,10.8696816 C2.44921601,10.0214852 2.14983082,9.17198394 2.14983082,8.26376137 C2.14983082,7.17937495 2.59890861,6.12500162 3.46899682,5.15936269 L3.46899682,5.15936269 Z M18.2284194,20.8288118 C19.1893924,20.8288118 20.1784328,20.7413823 21.1688097,20.5652185 C22.5494566,21.5321623 24.1092,22.2054997 25.818636,22.6452569 C26.2383098,22.7613946 26.7194646,22.850129 27.2594272,22.9088502 C27.4091198,22.9375584 27.5294085,22.8788371 27.6496972,22.7914077 C27.7392454,22.7026733 27.8287937,22.5865356 27.8595341,22.43908 C27.8595341,22.4103718 27.888938,22.3816636 27.888938,22.3229423 C27.888938,22.2929292 27.8595341,22.264221 27.8595341,22.2342079 C27.8595341,22.2054997 27.8595341,22.1754866 27.8287937,22.1180703 C27.8287937,22.0880572 27.7993898,22.059349 27.7993898,22.059349 C27.7686493,22.0293359 27.7686493,22.0006277 27.7392454,21.9706146 C27.708505,21.9118933 27.6791011,21.8831851 27.6791011,21.8831851 C27.6496972,21.8544769 27.6189567,21.8244638 27.5895528,21.7957556 C27.5588124,21.7657425 27.5294085,21.7370344 27.5294085,21.7370344 C27.4692641,21.6496049 27.3489754,21.5321623 27.1391385,21.3272903 C26.9293016,21.1211133 26.779609,20.9462544 26.6887242,20.8288118 C26.5991759,20.7113692 26.4788872,20.5652185 26.3291946,20.3603464 C26.1487616,20.1554744 26.0284729,19.9506023 25.9095207,19.7157172 C25.7892321,19.5108451 25.6689434,19.27596 25.5486547,19.0123667 C26.9587055,18.2215867 28.0386306,17.2559477 28.8191706,16.11284 C29.6291144,14.9997454 30.0193844,13.7705131 30.0193844,12.4525465 C30.0193844,11.1332749 29.598374,9.87402954 28.7590262,8.70221365 C27.9183419,7.53170267 26.779609,6.56475882 25.3388177,5.80268701 C25.608799,6.6234801 25.7290877,7.44296828 25.7290877,8.26376137 C25.7290877,9.72787879 25.3695582,11.1045667 24.6197586,12.4225334 C23.8686226,13.7405 22.7886974,14.8836077 21.3786466,15.8792598 C20.0888845,16.7861774 18.6186894,17.489528 16.9693978,17.9880064 C15.3187696,18.48518 13.5785932,18.7200651 11.8090129,18.7200651 C11.4494833,18.7200651 10.9696651,18.691357 10.3094138,18.6613439 C12.5588124,20.0967531 15.1984809,20.8288118 18.2284194,20.8288118 L18.2284194,20.8288118 Z" id="Fill-240" sketch:type="MSShapeGroup"></path>
            </g>
        </g>
    </g>
</svg>