<?xml version="1.0" encoding="UTF-8" standalone="no"?>
<svg width="30px" height="31px" viewBox="0 0 30 31" version="1.1" xmlns="http://www.w3.org/2000/svg" xmlns:xlink="http://www.w3.org/1999/xlink" xmlns:sketch="http://www.bohemiancoding.com/sketch/ns">
    <!-- Generator: Sketch 3.1.1 (8761) - http://www.bohemiancoding.com/sketch -->
    <title>Icon-Projects</title>
    <desc>Created with Sketch.</desc>
    <defs></defs>
    <g id="Welcome" stroke="none" stroke-width="1" fill="none" fill-rule="evenodd" sketch:type="MSPage">
        <g id="Icon-Projects" sketch:type="MSArtboardGroup" transform="translate(-9.000000, -9.000000)" fill="#FFFFFF">
            <g id="Projects-2" sketch:type="MSLayerGroup" transform="translate(9.000000, 9.000000)">
                <path d="M0.574527736,20.7223531 L14.2621139,29.9041011 C14.5022939,30.0234665 14.7411394,30.1146671 14.9813193,30.1146671 C15.2201649,30.1146671 15.4603448,30.0234665 15.6991904,29.9041011 L29.3867766,20.7223531 C29.7764018,20.4514338 29.9565367,20.0893141 29.9565367,19.6386761 L29.9565367,10.4864341 C29.9565367,10.0049489 29.7764018,9.64417034 29.3867766,9.40275716 L15.6991904,0.221009098 C15.4603448,0.0707964503 15.2201649,0.0104431545 14.9813193,0.0104431545 C14.7411394,0.0104431545 14.5022939,0.0707964503 14.2621139,0.221009098 L0.574527736,9.40275716 C0.186236882,9.64417034 0.00610194903,10.0049489 0.00610194903,10.4864341 L0.00610194903,19.6386761 C0.00610194903,20.0893141 0.186236882,20.4514338 0.574527736,20.7223531 L0.574527736,20.7223531 Z M2.58136432,12.8952012 L5.81578711,15.0625551 L2.58136432,17.229909 L2.58136432,12.8952012 L2.58136432,12.8952012 Z M8.12284858,16.6277173 L13.6936882,20.3602333 L13.6936882,26.4116571 L3.63014993,19.6386761 L8.12284858,16.6277173 L8.12284858,16.6277173 Z M13.6936882,3.71345315 L13.6936882,9.76353575 L8.12284858,13.497393 L3.63014993,10.4864341 L13.6936882,3.71345315 L13.6936882,3.71345315 Z M14.9813193,11.991243 L19.534063,15.0625551 L14.9813193,18.10302 L10.4285757,15.0625551 L14.9813193,11.991243 L14.9813193,11.991243 Z M16.2689505,20.3602333 L21.8397901,16.6277173 L26.3324888,19.6386761 L16.2689505,26.4116571 L16.2689505,20.3602333 L16.2689505,20.3602333 Z M16.2689505,3.71345315 L26.3324888,10.4864341 L21.8397901,13.497393 L16.2689505,9.76353575 L16.2689505,3.71345315 L16.2689505,3.71345315 Z M27.37994,12.8952012 L27.37994,17.229909 L24.1455172,15.0625551 L27.37994,12.8952012 L27.37994,12.8952012 Z" id="Fill-154" sketch:type="MSShapeGroup"></path>
            </g>
        </g>
    </g>
</svg>