<svg width="32px" height="26px" viewBox="0 0 32 26">
    <g id="Welcome" stroke="none" stroke-width="1" fill="none" fill-rule="evenodd" sketch:type="MSPage">
        <g id="Icon-Twitter" sketch:type="MSArtboardGroup" transform="translate(-8.000000, -11.000000)" stroke="#FFFFFF" stroke-width="2" stroke-linecap="round" stroke-linejoin="round">
            <path d="M34.2278625,16.5772277 C35.3611708,15.8991089 36.2251958,14.8306931 36.6353625,13.5466337 C35.5742792,14.1793069 34.3972792,14.6337624 33.1489458,14.8832673 C32.1502792,13.8139604 30.7236125,13.1456436 29.1444708,13.1456436 C26.1145875,13.1456436 23.6625042,15.6059406 23.6625042,18.6258416 C23.6625042,19.0535644 23.7070875,19.4732673 23.7944708,19.8733663 C19.2398375,19.6505941 15.1916708,17.4683168 12.4890292,14.1525743 C12.0164458,14.9634653 11.7489458,15.8991089 11.7489458,16.9069307 C11.7489458,18.8049505 12.7119458,20.480198 14.1823042,21.4684158 C13.2817208,21.4327723 12.4444458,21.1921782 11.7043625,20.7822772 L11.6954458,20.8535644 C11.6954458,23.5009901 13.5946958,25.7189109 16.0993875,26.2179208 C15.6446375,26.3444554 15.1542208,26.4157426 14.6539958,26.4157426 C14.2991125,26.4157426 13.9593875,26.380099 13.6196625,26.3177228 C14.3249708,28.4919802 16.3499458,30.0772277 18.7467458,30.1235644 C16.8751375,31.5929703 14.5024125,32.4671287 11.9353042,32.4671287 C11.4894708,32.4671287 11.0525542,32.439505 10.6245542,32.3851485 C13.0498875,33.9445545 15.9388875,34.8543564 19.0320792,34.8543564 C29.1355542,34.8543564 34.6558625,26.5048515 34.6558625,19.260297 C34.6558625,19.029505 34.6451625,18.7880198 34.6362458,18.5563366 C35.7080292,17.7793069 36.6353625,16.8169307 37.3754458,15.7217822 C36.3937208,16.1575248 35.3335292,16.4515842 34.2278625,16.5772277 Z" id="Twitter-2" sketch:type="MSShapeGroup"></path>
        </g>
    </g>
</svg>