<svg width="27px" height="27px" viewBox="0 0 27 27">
    <g id="Welcome" stroke="none" stroke-width="1" fill="none" fill-rule="evenodd">
        <g id="Icon-Location" class="iconfill" transform="translate(-11.000000, -11.000000)">
            <path d="M17,20.825 C17,24.605 24,35 24,35 C24,35 31,24.605 31,20.825 C31,17.058125 27.8690909,14 24,14 C20.1309091,14 17,17.058125 17,20.825 L17,20.825 Z M19.5454545,20.995625 C19.5454545,18.6725 21.6836364,16.625 24,16.625 C26.3163636,16.625 28.4290909,18.69875 28.4290909,21.00875 C28.4290909,23.331875 26.3036364,25.78625 23.9745455,25.78625 C21.6581818,25.78625 19.5454545,23.31875 19.5454545,20.995625 L19.5454545,20.995625 Z"></path>
        </g>
    </g>
</svg>