<svg width="29px" height="29px" viewBox="0 0 29 29">
    <g id="Welcome" stroke="none" stroke-width="1" fill="none" fill-rule="evenodd" sketch:type="MSPage">
        <g id="Icon-Skype" sketch:type="MSArtboardGroup" transform="translate(-9.000000, -9.000000)" stroke="#FFFFFF" stroke-width="2">
            <g id="Skype-2" sketch:type="MSLayerGroup" transform="translate(11.070833, 10.633663)">
                <path d="M24.6679583,15.4871287 C24.8552083,14.6316832 24.9631,13.750396 24.9631,12.8316832 C24.9631,6.00594059 19.4160417,0.472277228 12.585875,0.472277228 C11.863625,0.472277228 11.1592083,0.534653465 10.4735167,0.65049505 C9.36695833,-0.0445544554 8.05620833,-0.445544554 6.64826667,-0.445544554 C2.688375,-0.445544554 -0.521625,2.76326733 -0.521625,6.71881188 C-0.521625,8.04653465 -0.164958333,9.28514851 0.459208333,10.3455446 C0.298708333,11.1564356 0.209541667,11.9851485 0.209541667,12.8316832 C0.209541667,19.6663366 5.74679167,25.2 12.585875,25.2 C13.361625,25.2 14.1195417,25.1287129 14.8507083,24.9950495 C15.8582917,25.5386139 17.0174583,25.8415842 18.2399333,25.8415842 C22.2069583,25.8415842 25.4169583,22.6336634 25.4169583,18.6772277 C25.4169583,17.5277228 25.15035,16.449505 24.6679583,15.4871287 L24.6679583,15.4871287 Z" id="Path" stroke-linecap="square" sketch:type="MSShapeGroup"></path>
                <path d="M17.0986,7.88435644 C16.5707333,6.53524752 14.8614083,5.48554455 12.3174833,5.48554455 C8.65719167,5.48554455 7.4472,7.09752475 7.4472,8.61237624 C7.4472,10.1441584 8.43873333,11.4210891 11.2581833,11.9735644 C14.0161083,12.5144554 16.8997583,13.0651485 17.5283833,14.7867327 C18.1677083,16.540396 17.4722083,17.9607921 16.692,18.6291089 C15.9117917,19.2974257 14.474425,19.9381188 12.54575,19.9381188 C10.6723583,19.9381188 8.13645833,19.6413861 7.02276667,16.4851485" id="Stroke-2" stroke-linecap="round" stroke-linejoin="round" sketch:type="MSShapeGroup"></path>
            </g>
        </g>
    </g>
</svg>