<svg width="24px" height="28px" viewBox="0 0 24 28">
    <g id="Welcome" stroke="none" stroke-width="1" fill="none" fill-rule="evenodd" sketch:type="MSPage">
        <g id="Icon-Work" class="iconfill" sketch:type="MSArtboardGroup" transform="translate(-12.000000, -10.000000)" >
            <g id="Work-2" sketch:type="MSLayerGroup" transform="translate(12.000000, 11.000000)">
                <path d="M0.44269958,26.3072022 C0.7216049,26.6004559 1.08356203,26.7351618 1.50006064,26.7351618 L22.3398662,26.7351618 C22.7576044,26.7351618 23.1195615,26.6004559 23.3972272,26.3072022 C23.7034033,26.0389824 23.8422362,25.6908927 23.8422362,25.2903511 L23.8422362,8.11116947 C23.8422362,7.71062787 23.730674,7.25525021 23.5360601,6.77364662 C23.3141754,6.31946106 23.0637804,5.91772737 22.7848751,5.65069963 L17.9443183,0.994403523 C17.665413,0.727375789 17.2489144,0.485381905 16.7753951,0.271998135 C16.2746051,0.0848403038 15.8010859,-0.022447625 15.3845873,-0.022447625 L1.50006064,-0.022447625 C1.08356203,-0.022447625 0.7216049,0.111066242 0.44269958,0.405512002 C0.137763097,0.673731824 -0.00230935303,1.02062946 -0.00230935303,1.42236315 L-0.00230935303,25.2903511 C-0.00230935303,25.6908927 0.137763097,26.0389824 0.44269958,26.3072022 L0.44269958,26.3072022 Z M1.97357989,1.8777408 L13.909488,1.8777408 L13.909488,8.08494353 C13.909488,8.48667722 14.0483209,8.83357486 14.354497,9.10179468 C14.6334023,9.39624044 14.9953594,9.52975431 15.411858,9.52975431 L21.8675865,9.52975431 L21.8675865,24.8349734 L1.97357989,24.8349734 L1.97357989,1.8777408 L1.97357989,1.8777408 Z M6.091462,20.8748567 C6.1745138,20.9547266 6.31458625,21.0083706 6.45341912,21.0083706 L17.3877473,21.0083706 C17.5265801,21.0083706 17.6381423,20.9547266 17.7497044,20.8748567 C17.8327562,20.7949868 17.8885373,20.661473 17.8885373,20.526767 L17.8885373,19.5909779 C17.8885373,19.4562719 17.8327562,19.322758 17.7497044,19.2428881 C17.6381423,19.1630182 17.5265801,19.1093743 17.3877473,19.1093743 L6.45341912,19.1093743 C6.31458625,19.1093743 6.1745138,19.1630182 6.091462,19.2428881 C6.00841019,19.322758 5.95262913,19.4562719 5.95262913,19.5909779 L5.95262913,20.526767 C5.95262913,20.661473 6.00841019,20.7949868 6.091462,20.8748567 L6.091462,20.8748567 Z M6.091462,17.0482539 C6.1745138,17.1293159 6.31458625,17.1829599 6.45341912,17.1829599 L17.3877473,17.1829599 C17.5265801,17.1829599 17.6381423,17.1293159 17.7497044,17.0482539 C17.8327562,16.968384 17.8885373,16.8348702 17.8885373,16.7013563 L17.8885373,15.7643751 C17.8885373,15.6308612 17.8327562,15.4961552 17.7497044,15.4162853 C17.6381423,15.3364154 17.5265801,15.2827715 17.3877473,15.2827715 L6.45341912,15.2827715 C6.31458625,15.2827715 6.1745138,15.3364154 6.091462,15.4162853 C6.00841019,15.4961552 5.95262913,15.6308612 5.95262913,15.7643751 L5.95262913,16.7013563 C5.95262913,16.8348702 6.00841019,16.968384 6.091462,17.0482539 L6.091462,17.0482539 Z M6.091462,13.2228432 C6.1745138,13.3027131 6.31458625,13.3563571 6.45341912,13.3563571 L17.3877473,13.3563571 C17.5265801,13.3563571 17.6381423,13.3027131 17.7497044,13.2228432 C17.8327562,13.1417812 17.8885373,13.0082674 17.8885373,12.8747535 L17.8885373,11.9377723 C17.8885373,11.8042584 17.8327562,11.6707445 17.7497044,11.5896825 C17.6381423,11.5098126 17.5265801,11.4561687 17.3877473,11.4561687 L6.45341912,11.4561687 C6.31458625,11.4561687 6.1745138,11.5098126 6.091462,11.5896825 C6.00841019,11.6707445 5.95262913,11.8042584 5.95262913,11.9377723 L5.95262913,12.8747535 C5.95262913,13.0082674 6.00841019,13.1417812 6.091462,13.2228432 L6.091462,13.2228432 Z M15.8853773,1.98383664 C16.1915533,2.09112457 16.3861673,2.1984125 16.5250001,2.33192637 L21.3940672,7.01444842 C21.5329001,7.14796229 21.6444622,7.3363122 21.7560244,7.62956588 L15.8853773,7.62956588 L15.8853773,1.98383664 L15.8853773,1.98383664 Z" id="Fill-32" sketch:type="MSShapeGroup"></path>
            </g>
        </g>
    </g>
</svg>