<svg width="27px" height="27px" viewBox="0 0 27 27">
    <g id="Welcome" stroke="none" stroke-width="1" fill="none" fill-rule="evenodd" sketch:type="MSPage">
        <g id="Icon-Instagram" sketch:type="MSArtboardGroup" transform="translate(-11.000000, -11.000000)">
            <g id="Instagram-2" sketch:type="MSLayerGroup" transform="translate(11.000000, 11.000000)">
                <path d="M21.6377778,0 L4.99333333,0 C2.36039028,0 0,1.90247525 0,4.15841584 L0,20.7920792 C0,23.0792079 2.36039028,24.950495 4.99333333,24.950495 L21.6377778,24.950495 C23.5414861,24.950495 24.9666667,23.0792079 24.9666667,20.7920792 L24.9666667,4.15841584 C24.9666667,1.90247525 23.5414861,0 21.6377778,0 L21.6377778,0 Z" id="Path" class="iconstroke" stroke-width="2" stroke-linecap="round" stroke-linejoin="round" sketch:type="MSShapeGroup"></path>
                <path d="M17.8333333,12.0639756 C17.8333333,15.4255399 15.4454915,17.8217822 12.8948718,17.8217822 C9.53212403,17.8217822 7.13333333,15.4255399 7.13333333,12.0639756 C7.13333333,9.52694451 9.53212403,7.12871287 12.8948718,7.12871287 C15.4454915,7.12970758 17.8333333,9.52694451 17.8333333,12.0639756 L17.8333333,12.0639756 Z" id="Path" class="iconstroke" stroke-width="2" stroke-linecap="round" stroke-linejoin="round" sketch:type="MSShapeGroup"></path>
                <path d="M21.4,5.04950495 C21.4,5.22772277 21.2811111,5.34653465 21.1027778,5.34653465 L19.9138889,5.34653465 C19.7355556,5.34653465 19.6166667,5.22772277 19.6166667,5.04950495 L19.6166667,3.86138614 C19.6166667,3.68316832 19.7355556,3.56435644 19.9138889,3.56435644 L21.1027778,3.56435644 C21.2811111,3.56435644 21.4,3.68316832 21.4,3.86138614 L21.4,5.04950495 L21.4,5.04950495 Z" id="Path" class="iconfill" sketch:type="MSShapeGroup"></path>
                <path d="M0,8.91089109 L8.025,8.91089109 L0,8.91089109 Z" id="Path" class="iconstroke" stroke-width="2" stroke-linecap="round" stroke-linejoin="round" sketch:type="MSShapeGroup"></path>
                <path d="M16.9416667,8.91089109 L24.9666667,8.91089109 L16.9416667,8.91089109 Z" id="Path-copy" class="iconstroke" stroke-width="2" stroke-linecap="round" stroke-linejoin="round" sketch:type="MSShapeGroup"></path>
            </g>
        </g>
    </g>
</svg>